<svg width="238" height="56" viewBox="0 0 238 56" fill="none" xmlns="http://www.w3.org/2000/svg">
<path d="M74.608 23.144C74.384 23.144 74.168 23.128 73.96 23.096C73.752 23.08 73.52 23.04 73.264 22.976L73.408 21.392C73.68 21.456 73.944 21.488 74.2 21.488C74.92 21.488 75.496 21.208 75.928 20.648C76.376 20.072 76.712 19.192 76.936 18.008C77.16 16.808 77.304 15.272 77.368 13.4L77.608 6.2H89.008V23H87.256V7.256L87.712 7.736H78.736L79.168 7.232L78.952 13.352C78.888 15.032 78.768 16.488 78.592 17.72C78.416 18.936 78.16 19.952 77.824 20.768C77.488 21.568 77.056 22.168 76.528 22.568C76 22.952 75.36 23.144 74.608 23.144ZM94.6758 23V6.2H96.4278V13.664H100.772V15.272H96.4278V23H94.6758ZM108.236 23.144C107.036 23.144 105.924 22.936 104.9 22.52C103.892 22.088 103.004 21.488 102.236 20.72C101.484 19.952 100.9 19.048 100.484 18.008C100.068 16.968 99.8598 15.832 99.8598 14.6C99.8598 13.368 100.068 12.232 100.484 11.192C100.9 10.152 101.484 9.248 102.236 8.48C103.004 7.712 103.892 7.12 104.9 6.704C105.924 6.272 107.036 6.056 108.236 6.056C109.436 6.056 110.548 6.272 111.572 6.704C112.596 7.12 113.484 7.712 114.236 8.48C114.988 9.248 115.572 10.152 115.988 11.192C116.42 12.232 116.636 13.368 116.636 14.6C116.636 15.832 116.42 16.968 115.988 18.008C115.572 19.048 114.988 19.952 114.236 20.72C113.484 21.488 112.596 22.088 111.572 22.52C110.548 22.936 109.436 23.144 108.236 23.144ZM108.236 21.56C109.18 21.56 110.052 21.392 110.852 21.056C111.668 20.704 112.372 20.216 112.964 19.592C113.556 18.968 114.02 18.24 114.356 17.408C114.692 16.56 114.86 15.624 114.86 14.6C114.86 13.576 114.692 12.648 114.356 11.816C114.02 10.968 113.556 10.232 112.964 9.608C112.372 8.984 111.668 8.504 110.852 8.168C110.052 7.816 109.18 7.64 108.236 7.64C107.308 7.64 106.436 7.816 105.62 8.168C104.82 8.504 104.124 8.984 103.532 9.608C102.94 10.232 102.476 10.968 102.14 11.816C101.804 12.648 101.636 13.576 101.636 14.6C101.636 15.624 101.804 16.56 102.14 17.408C102.476 18.24 102.94 18.968 103.532 19.592C104.124 20.216 104.82 20.704 105.62 21.056C106.436 21.392 107.308 21.56 108.236 21.56ZM120.879 23V6.2H133.167V7.712H122.631V13.208H128.127C130.111 13.208 131.615 13.616 132.639 14.432C133.679 15.232 134.199 16.416 134.199 17.984C134.199 19.6 133.639 20.84 132.519 21.704C131.415 22.568 129.823 23 127.743 23H120.879ZM122.631 21.584H127.719C129.271 21.584 130.439 21.288 131.223 20.696C132.023 20.088 132.423 19.208 132.423 18.056C132.423 15.768 130.855 14.624 127.719 14.624H122.631V21.584ZM138.293 23V6.2H140.045V20.12L150.797 6.2H152.405V23H150.653V9.104L139.901 23H138.293ZM75.832 52V35.2H82.12C83.544 35.2 84.768 35.432 85.792 35.896C86.816 36.344 87.6 37 88.144 37.864C88.704 38.712 88.984 39.744 88.984 40.96C88.984 42.144 88.704 43.168 88.144 44.032C87.6 44.88 86.816 45.536 85.792 46C84.768 46.464 83.544 46.696 82.12 46.696H76.816L77.608 45.856V52H75.832ZM77.608 46L76.816 45.136H82.072C83.752 45.136 85.024 44.776 85.888 44.056C86.768 43.32 87.208 42.288 87.208 40.96C87.208 39.616 86.768 38.576 85.888 37.84C85.024 37.104 83.752 36.736 82.072 36.736H76.816L77.608 35.896V46ZM89.2975 52L96.9775 35.2H98.7295L106.41 52H104.538L97.4815 36.232H98.2015L91.1455 52H89.2975ZM92.3215 47.512L92.8495 46.072H102.618L103.146 47.512H92.3215ZM109.629 52V35.2H121.917V36.712H111.381V42.208H116.877C118.861 42.208 120.365 42.616 121.389 43.432C122.429 44.232 122.949 45.416 122.949 46.984C122.949 48.6 122.389 49.84 121.269 50.704C120.165 51.568 118.573 52 116.493 52H109.629ZM111.381 50.584H116.469C118.021 50.584 119.189 50.288 119.973 49.696C120.773 49.088 121.173 48.208 121.173 47.056C121.173 44.768 119.605 43.624 116.469 43.624H111.381V50.584ZM134.411 52.144C133.147 52.144 131.971 51.936 130.883 51.52C129.811 51.088 128.875 50.488 128.075 49.72C127.291 48.936 126.675 48.032 126.227 47.008C125.795 45.968 125.579 44.832 125.579 43.6C125.579 42.368 125.795 41.24 126.227 40.216C126.675 39.176 127.291 38.272 128.075 37.504C128.875 36.72 129.811 36.12 130.883 35.704C131.955 35.272 133.131 35.056 134.411 35.056C135.675 35.056 136.843 35.272 137.915 35.704C138.987 36.12 139.915 36.712 140.699 37.48C141.499 38.248 142.115 39.152 142.547 40.192C142.995 41.232 143.219 42.368 143.219 43.6C143.219 44.832 142.995 45.968 142.547 47.008C142.115 48.048 141.499 48.952 140.699 49.72C139.915 50.488 138.987 51.088 137.915 51.52C136.843 51.936 135.675 52.144 134.411 52.144ZM134.411 50.56C135.419 50.56 136.347 50.392 137.195 50.056C138.059 49.704 138.803 49.216 139.427 48.592C140.067 47.952 140.563 47.216 140.915 46.384C141.267 45.536 141.443 44.608 141.443 43.6C141.443 42.592 141.267 41.672 140.915 40.84C140.563 39.992 140.067 39.256 139.427 38.632C138.803 37.992 138.059 37.504 137.195 37.168C136.347 36.816 135.419 36.64 134.411 36.64C133.403 36.64 132.467 36.816 131.603 37.168C130.739 37.504 129.987 37.992 129.347 38.632C128.723 39.256 128.227 39.992 127.859 40.84C127.507 41.672 127.331 42.592 127.331 43.6C127.331 44.592 127.507 45.512 127.859 46.36C128.227 47.208 128.723 47.952 129.347 48.592C129.987 49.216 130.739 49.704 131.603 50.056C132.467 50.392 133.403 50.56 134.411 50.56ZM150.559 52V36.256L151.039 36.736H144.655V35.2H158.215V36.736H151.855L152.311 36.256V52H150.559ZM158.016 52L165.696 35.2H167.448L175.128 52H173.256L166.2 36.232H166.92L159.864 52H158.016ZM161.04 47.512L161.568 46.072H171.336L171.864 47.512H161.04ZM178.348 52V35.2H180.1V49.12L190.852 35.2H192.46V52H190.708V38.104L179.956 52H178.348ZM185.356 33.976C184.156 33.976 183.204 33.704 182.5 33.16C181.812 32.616 181.46 31.856 181.444 30.88H182.764C182.78 31.52 183.02 32.024 183.484 32.392C183.964 32.76 184.588 32.944 185.356 32.944C186.124 32.944 186.74 32.76 187.204 32.392C187.684 32.024 187.932 31.52 187.948 30.88H189.268C189.252 31.856 188.892 32.616 188.188 33.16C187.484 33.704 186.54 33.976 185.356 33.976Z" fill="white"/>
<mask id="path-2-inside-1_451_321" fill="white">
<path fill-rule="evenodd" clip-rule="evenodd" d="M55.3525 10.5759C60.3245 15.4322 60.3245 23.3059 55.3524 28.1622L33.0215 49.9735L33.0134 49.9655L32.9757 50.0023L10.7525 28.2963C5.78042 23.44 5.78043 15.5663 10.7525 10.7099C15.7245 5.85357 23.7858 5.85357 28.7579 10.7099L32.9838 14.8376L37.3471 10.5759C42.3191 5.71951 50.3804 5.71951 55.3525 10.5759Z"/>
</mask>
<path fill-rule="evenodd" clip-rule="evenodd" d="M55.3525 10.5759C60.3245 15.4322 60.3245 23.3059 55.3524 28.1622L33.0215 49.9735L33.0134 49.9655L32.9757 50.0023L10.7525 28.2963C5.78042 23.44 5.78043 15.5663 10.7525 10.7099C15.7245 5.85357 23.7858 5.85357 28.7579 10.7099L32.9838 14.8376L37.3471 10.5759C42.3191 5.71951 50.3804 5.71951 55.3525 10.5759Z" fill="#4D6E81"/>
<path d="M55.3524 28.1622L56.0512 28.8776L55.3524 28.1622ZM55.3525 10.5759L54.6537 11.2912V11.2912L55.3525 10.5759ZM33.0215 49.9735L32.3228 50.6889L33.0216 51.3713L33.7203 50.6889L33.0215 49.9735ZM33.0134 49.9655L33.7121 49.2501L33.0133 48.5677L32.3146 49.2501L33.0134 49.9655ZM32.9757 50.0023L32.2769 50.7177L32.9757 51.4002L33.6744 50.7177L32.9757 50.0023ZM10.7525 28.2963L11.4512 27.5809L10.7525 28.2963ZM10.7525 10.7099L10.0537 9.99453L10.7525 10.7099ZM28.7579 10.7099L29.4566 9.99454V9.99454L28.7579 10.7099ZM32.9838 14.8376L32.2851 15.5529L32.9838 16.2354L33.6826 15.5529L32.9838 14.8376ZM37.3471 10.5759L38.0458 11.2912L37.3471 10.5759ZM56.0512 28.8776C61.4249 23.6289 61.4249 15.1092 56.0512 9.86047L54.6537 11.2912C59.2241 15.7552 59.2241 22.9829 54.6537 27.4469L56.0512 28.8776ZM33.7203 50.6889L56.0512 28.8776L54.6537 27.4469L32.3228 49.2581L33.7203 50.6889ZM32.3147 50.6809L32.3228 50.6889L33.7203 49.2581L33.7121 49.2501L32.3147 50.6809ZM32.3146 49.2501L32.2769 49.287L33.6744 50.7177L33.7121 50.6809L32.3146 49.2501ZM33.6744 49.287L11.4512 27.5809L10.0537 29.0117L32.2769 50.7177L33.6744 49.287ZM11.4512 27.5809C6.88085 23.1169 6.88085 15.8893 11.4512 11.4253L10.0537 9.99453C4.68 15.2432 4.68 23.763 10.0537 29.0117L11.4512 27.5809ZM11.4512 11.4253C16.0347 6.94844 23.4756 6.94845 28.0591 11.4253L29.4566 9.99454C24.096 4.7587 15.4143 4.7587 10.0537 9.99453L11.4512 11.4253ZM28.0591 11.4253L32.2851 15.5529L33.6826 14.1222L29.4566 9.99454L28.0591 11.4253ZM36.6483 9.86047L32.2851 14.1222L33.6826 15.5529L38.0458 11.2912L36.6483 9.86047ZM56.0512 9.86047C50.6906 4.62463 42.0089 4.62464 36.6483 9.86047L38.0458 11.2912C42.6293 6.81438 50.0702 6.81438 54.6537 11.2912L56.0512 9.86047Z" fill="white" mask="url(#path-2-inside-1_451_321)"/>
<mask id="path-4-outside-2_451_321" maskUnits="userSpaceOnUse" x="4" y="4" width="58" height="51" fill="black">
<rect fill="white" x="4" y="4" width="58" height="51"/>
<path fill-rule="evenodd" clip-rule="evenodd" d="M56.8233 9.16248C62.3922 14.7124 62.3922 23.7107 56.8233 29.2607L33.0263 52.9766L33.0118 52.9621L32.9737 53L9.17672 29.2841C3.60776 23.7342 3.60776 14.7359 9.17671 9.18591C14.7457 3.63595 23.7747 3.63594 29.3437 9.18591L32.9882 12.818L36.6563 9.16247C42.2253 3.61251 51.2543 3.61251 56.8233 9.16248Z"/>
</mask>
<path d="M56.8233 29.2607L57.5292 29.969L56.8233 29.2607ZM56.8233 9.16248L56.1174 9.87079L56.8233 9.16248ZM33.0263 52.9766L32.3203 53.6848L33.0262 54.3884L33.7322 53.6849L33.0263 52.9766ZM33.0118 52.9621L33.7177 52.2538L33.0118 51.5502L32.3058 52.2538L33.0118 52.9621ZM32.9737 53L32.2678 53.7083L32.9738 54.4118L33.6797 53.7083L32.9737 53ZM9.17672 29.2841L8.47082 29.9924L9.17672 29.2841ZM9.17671 9.18591L9.88261 9.89423L9.17671 9.18591ZM29.3437 9.18591L28.6378 9.89422L29.3437 9.18591ZM32.9882 12.818L32.2823 13.5264L32.9882 14.2298L33.6941 13.5264L32.9882 12.818ZM36.6563 9.16247L35.9504 8.45416L36.6563 9.16247ZM57.5292 29.969C63.4903 24.0282 63.4903 14.3949 57.5292 8.45416L56.1174 9.87079C61.2942 15.03 61.2942 23.3932 56.1174 28.5524L57.5292 29.969ZM33.7322 53.6849L57.5292 29.969L56.1174 28.5524L32.3204 52.2682L33.7322 53.6849ZM32.3058 53.6704L32.3203 53.6848L33.7322 52.2683L33.7177 52.2538L32.3058 53.6704ZM32.3058 52.2538L32.2678 52.2917L33.6797 53.7083L33.7177 53.6704L32.3058 52.2538ZM33.6796 52.2917L9.88261 28.5758L8.47082 29.9924L32.2678 53.7083L33.6796 52.2917ZM9.88261 28.5758C4.7058 23.4166 4.70579 15.0534 9.88261 9.89423L8.47082 8.4776C2.50973 14.4184 2.50973 24.0517 8.47082 29.9924L9.88261 28.5758ZM9.88261 9.89423C15.0613 4.73318 23.4591 4.73317 28.6378 9.89422L30.0496 8.4776C24.0904 2.53872 14.43 2.53872 8.47082 8.4776L9.88261 9.89423ZM28.6378 9.89422L32.2823 13.5264L33.6941 12.1097L30.0496 8.4776L28.6378 9.89422ZM35.9504 8.45416L32.2823 12.1097L33.6941 13.5264L37.3622 9.87078L35.9504 8.45416ZM57.5292 8.45416C51.57 2.51528 41.9096 2.51528 35.9504 8.45416L37.3622 9.87078C42.5409 4.70974 50.9387 4.70974 56.1174 9.87079L57.5292 8.45416Z" fill="white" mask="url(#path-4-outside-2_451_321)"/>
<path d="M33.4719 6.7871L37.0677 3.74309L39.8195 5.91484L35.2827 9.89656L33.4719 6.7871Z" fill="white"/>
<path d="M41.9361 1.65039L46.6278 1.22199L47.611 4.395L41.6098 5.04532L41.9361 1.65039Z" fill="white"/>
<path d="M51.7523 1.68225L56.1121 3.46789L55.4959 6.80051L49.8714 4.60931L51.7523 1.68225Z" fill="white"/>
<path d="M60.1347 6.73614L62.9075 10.5451L60.5272 13.1408L56.8877 8.32522L60.1347 6.73614Z" fill="white"/>
<path d="M64.6079 15.6828L65.2027 20.3565L61.6254 21.5242L60.7485 15.552L64.6079 15.6828Z" fill="white"/>
<path d="M64.0755 26.6178L61.4755 30.5468L58.0031 29.0965L61.2369 23.9996L64.0755 26.6178Z" fill="white"/>
<path d="M58.4808 34.2085L55.0343 37.4209L51.9972 35.199L56.333 30.9993L58.4808 34.2085Z" fill="white"/>
<path d="M52.4808 40.2085L49.0343 43.4209L45.9972 41.199L50.333 36.9993L52.4808 40.2085Z" fill="white"/>
<path d="M46.4808 46.2085L43.0343 49.4209L39.9972 47.199L44.333 42.9993L46.4808 46.2085Z" fill="white"/>
<path d="M22.9514 49.4096L19.5335 46.1669L21.5647 42.9991L26.0227 47.0688L22.9514 49.4096Z" fill="white"/>
<path d="M16.9514 43.4096L13.5335 40.1669L15.5647 36.9991L20.0227 41.0688L16.9514 43.4096Z" fill="white"/>
<path d="M10.9514 37.4096L7.53351 34.1669L9.56474 30.9991L14.0227 35.0688L10.9514 37.4096Z" fill="white"/>
<path d="M28.9605 3.4409L32.527 6.51953L30.6468 9.77927L26.0025 5.92343L28.9605 3.4409Z" fill="white"/>
<path d="M19.1153 1.07865L23.7849 1.70454L23.9944 5.46181L17.9974 4.77499L19.1153 1.07865Z" fill="white"/>
<path d="M9.67389 3.29784L14.0425 1.53357L16.082 4.69611L10.5293 7.06359L9.67389 3.29784Z" fill="white"/>
<path d="M2.43308 10.1639L5.46626 6.55852L9.04967 8.6295L5.2624 13.3298L2.43308 10.1639Z" fill="white"/>
<path d="M0.0834935 20.3072L0.751466 15.6432L4.88801 15.5061L4.15898 21.4982L0.0834935 20.3072Z" fill="white"/>
<path d="M4.68458 30.7276L2.40353 26.6049L5.61981 24.0001L8.65338 29.2187L4.68458 30.7276Z" fill="white"/>
<path d="M40.4397 52.203L37.0325 55.3772L34.0006 53.1502L38.2861 48.9993L40.4397 52.203Z" fill="white"/>
<path d="M29.1444 55.3203L25.5501 52.2742L27.5154 48.8506L32.1982 52.6595L29.1444 55.3203Z" fill="white"/>
<line x1="74" y1="28.75" x2="159" y2="28.75" stroke="white" stroke-width="0.5"/>
</svg>
