<svg width="75" height="75" viewBox="0 0 75 75" fill="none" xmlns="http://www.w3.org/2000/svg">
<path d="M44.7845 0.175791L49.314 1.47313L48.8776 5.62482L43.0405 4.08711L44.7845 0.175791Z" fill="url(#paint0_linear_641_180)"/>
<path d="M55.3729 5.11171L59.1483 7.92995L57.6274 11.1354L52.7257 7.61257L55.3729 5.11171Z" fill="url(#paint1_linear_641_180)"/>
<path d="M65.2092 11.2156L68.3606 14.7188L65.1285 18.6593L60.9753 14.2789L65.2092 11.2156Z" fill="url(#paint2_linear_641_180)"/>
<path d="M71.0062 21.0932L72.7723 25.4613L69.3478 27.6206L66.9698 22.0725L71.0062 21.0932Z" fill="url(#paint3_linear_641_180)"/>
<path d="M73.6754 32.657L73.9434 37.3605L70.8586 38.224L70.4173 32.2039L73.6754 32.657Z" fill="url(#paint4_linear_641_180)"/>
<path d="M49.4574 38.6656L46.0109 41.8779L42.9737 39.656L47.3095 35.4563L49.4574 38.6656Z" fill="url(#paint5_linear_641_180)"/>
<path d="M43.4574 44.6656L40.0109 47.8779L36.9737 45.656L41.3095 41.4563L43.4574 44.6656Z" fill="url(#paint6_linear_641_180)"/>
<path d="M6.99409 58.5679L4.54404 54.543L8.1694 51.4573L11.4331 56.5352L6.99409 58.5679Z" fill="url(#paint7_linear_641_180)"/>
<path d="M3.55741 48.3948L2.19865 43.884L4.59801 42.4575L6.4202 48.2122L3.55741 48.3948Z" fill="url(#paint8_linear_641_180)"/>
<path d="M0.179856 37.9627L0.13368 33.251L4.77792 32.4571L4.98298 38.4899L0.179856 37.9627Z" fill="url(#paint9_linear_641_180)"/>
<path d="M33.674 1.07861L38.3843 0.987958L39.139 4.25313L33.1067 4.4721L33.674 1.07861Z" fill="url(#paint10_linear_641_180)"/>
<path d="M22.1191 2.39146L26.4996 0.65487L29.0227 4.95187L23.4701 7.31935L22.1191 2.39146Z" fill="url(#paint11_linear_641_180)"/>
<path d="M13.7363 9.46854L17.3776 6.47902L20.1565 8.75996L15.562 12.6751L13.7363 9.46854Z" fill="url(#paint12_linear_641_180)"/>
<path d="M5.50217 16.278L8.33418 12.5119L12.7368 14.8685L9.2339 19.7844L5.50217 16.278Z" fill="url(#paint13_linear_641_180)"/>
<path d="M2.69291 26.6813L4.30486 22.2543L7.89885 22.8159L5.93915 28.5252L2.69291 26.6813Z" fill="url(#paint14_linear_641_180)"/>
<path d="M15.4491 65.5156L11.8468 62.4793L13.4854 59.4573L18.1683 63.2662L15.4491 65.5156Z" fill="url(#paint15_linear_641_180)"/>
<path d="M23.3743 72.5248L19.2074 70.3248L20.7553 65.7809L26.1611 68.4669L23.3743 72.5248Z" fill="url(#paint16_linear_641_180)"/>
<path d="M34.3439 73.4003L29.6588 72.9043L29.3242 69.4568L35.3372 69.9864L34.3439 73.4003Z" fill="url(#paint17_linear_641_180)"/>
<path d="M45.8526 73.5061L41.2021 74.2622L39.823 70.2962L45.7588 69.1996L45.8526 73.5061Z" fill="url(#paint18_linear_641_180)"/>
<path d="M54.9656 69.19L50.6456 71.0696L48.7332 68.4019L54.2274 65.9017L54.9656 69.19Z" fill="url(#paint19_linear_641_180)"/>
<path d="M63.8904 64.0515L60.092 66.8393L56.9379 63.7813L61.7225 60.1011L63.8904 64.0515Z" fill="url(#paint20_linear_641_180)"/>
<path d="M69.6888 54.4649L67.0704 58.3815L63.9595 57.1337L67.2284 52.0591L69.6888 54.4649Z" fill="url(#paint21_linear_641_180)"/>
<path d="M74.635 44.4082L73.161 48.8835L68.7244 48.1989L70.4804 42.4237L74.635 44.4082Z" fill="url(#paint22_linear_641_180)"/>
<circle cx="36.1163" cy="36.5421" r="14.6397" fill="url(#paint23_linear_641_180)"/>
<path d="M63.9793 35.4093C63.9793 35.4093 60.6854 38.0878 58.721 38.8923C56.7565 39.6967 54.6528 40.1064 52.5301 40.0978C50.4073 40.0893 48.307 39.6627 46.349 38.8425C44.3911 38.0222 42.6139 36.8244 41.119 35.3173C39.624 33.8103 38.4405 32.0235 37.636 30.059C36.8315 28.0946 36.4219 25.9909 36.4304 23.8681C36.439 21.7454 36.8655 19.645 37.6858 17.6871C38.506 15.7292 39.7039 13.952 41.2109 12.457C41.2109 12.457 40.3247 23.4578 46.6373 29.9596C52.9499 36.4614 63.9793 35.4093 63.9793 35.4093Z" fill="#A6D4FF"/>
<line x1="25.4435" y1="16.1601" x2="27.3325" y2="20.8826" stroke="url(#paint24_linear_641_180)" stroke-width="0.4"/>
<line x1="15.9151" y1="24.5647" x2="20.2807" y2="27.1746" stroke="url(#paint25_linear_641_180)" stroke-width="0.4"/>
<line x1="13.0212" y1="34.93" x2="17.9792" y2="36.0654" stroke="url(#paint26_linear_641_180)" stroke-width="0.4"/>
<line x1="12.9175" y1="44.9359" x2="17.7772" y2="43.4346" stroke="url(#paint27_linear_641_180)" stroke-width="0.4"/>
<line x1="18.4947" y1="53.8125" x2="21.9719" y2="50.1004" stroke="url(#paint28_linear_641_180)" stroke-width="0.4"/>
<line x1="47.1275" y1="51.0504" x2="50.4643" y2="54.8892" stroke="url(#paint29_linear_641_180)" stroke-width="0.4"/>
<line x1="29.4857" y1="54.1007" x2="27.3229" y2="58.7042" stroke="url(#paint30_linear_641_180)" stroke-width="0.4"/>
<line x1="38.6755" y1="53.9951" x2="39.1983" y2="59.0544" stroke="url(#paint31_linear_641_180)" stroke-width="0.4"/>
<line x1="52.77" y1="45.3548" x2="56.8097" y2="48.4452" stroke="url(#paint32_linear_641_180)" stroke-width="0.4"/>
<circle cx="37.4766" cy="36.957" r="33" stroke="url(#paint33_linear_641_180)"/>
<circle cx="37.4766" cy="36.957" r="31" stroke="url(#paint34_linear_641_180)"/>
<defs>
<linearGradient id="paint0_linear_641_180" x1="47.0358" y1="0.768859" x2="45.9591" y2="4.85597" gradientUnits="userSpaceOnUse">
<stop stop-color="#F9FFCD"/>
<stop offset="1" stop-color="#96997B"/>
</linearGradient>
<linearGradient id="paint1_linear_641_180" x1="57.2633" y1="6.47038" x2="55.1766" y2="9.37396" gradientUnits="userSpaceOnUse">
<stop stop-color="#F9FFCD"/>
<stop offset="1" stop-color="#96997B"/>
</linearGradient>
<linearGradient id="paint2_linear_641_180" x1="66.811" y1="12.905" x2="63.0519" y2="16.4691" gradientUnits="userSpaceOnUse">
<stop stop-color="#F9FFCD"/>
<stop offset="1" stop-color="#96997B"/>
</linearGradient>
<linearGradient id="paint3_linear_641_180" x1="71.9234" y1="23.233" x2="68.1588" y2="24.8466" gradientUnits="userSpaceOnUse">
<stop stop-color="#F9FFCD"/>
<stop offset="1" stop-color="#96997B"/>
</linearGradient>
<linearGradient id="paint4_linear_641_180" x1="73.8456" y1="34.9788" x2="70.638" y2="35.2139" gradientUnits="userSpaceOnUse">
<stop stop-color="#F9FFCD"/>
<stop offset="1" stop-color="#96997B"/>
</linearGradient>
<linearGradient id="paint5_linear_641_180" x1="47.7852" y1="40.2854" x2="45.1416" y2="37.5561" gradientUnits="userSpaceOnUse">
<stop stop-color="#F9FFCD"/>
<stop offset="1" stop-color="#96997B"/>
</linearGradient>
<linearGradient id="paint6_linear_641_180" x1="41.7852" y1="46.2854" x2="39.1416" y2="43.5561" gradientUnits="userSpaceOnUse">
<stop stop-color="#F9FFCD"/>
<stop offset="1" stop-color="#96997B"/>
</linearGradient>
<linearGradient id="paint7_linear_641_180" x1="5.73535" y1="56.6095" x2="9.80123" y2="53.9963" gradientUnits="userSpaceOnUse">
<stop stop-color="#F9FFCD"/>
<stop offset="1" stop-color="#96997B"/>
</linearGradient>
<linearGradient id="paint8_linear_641_180" x1="2.85453" y1="46.1754" x2="5.5091" y2="45.3348" gradientUnits="userSpaceOnUse">
<stop stop-color="#F9FFCD"/>
<stop offset="1" stop-color="#96997B"/>
</linearGradient>
<linearGradient id="paint9_linear_641_180" x1="0.100598" y1="35.6359" x2="4.88045" y2="35.4735" gradientUnits="userSpaceOnUse">
<stop stop-color="#F9FFCD"/>
<stop offset="1" stop-color="#96997B"/>
</linearGradient>
<linearGradient id="paint10_linear_641_180" x1="36.0005" y1="0.994032" x2="36.1228" y2="4.36262" gradientUnits="userSpaceOnUse">
<stop stop-color="#F9FFCD"/>
<stop offset="1" stop-color="#96997B"/>
</linearGradient>
<linearGradient id="paint11_linear_641_180" x1="24.2607" y1="1.47837" x2="26.2464" y2="6.13561" gradientUnits="userSpaceOnUse">
<stop stop-color="#F9FFCD"/>
<stop offset="1" stop-color="#96997B"/>
</linearGradient>
<linearGradient id="paint12_linear_641_180" x1="15.5081" y1="7.95847" x2="17.8592" y2="10.7175" gradientUnits="userSpaceOnUse">
<stop stop-color="#F9FFCD"/>
<stop offset="1" stop-color="#96997B"/>
</linearGradient>
<linearGradient id="paint13_linear_641_180" x1="6.85303" y1="14.3819" x2="10.9854" y2="17.3265" gradientUnits="userSpaceOnUse">
<stop stop-color="#F9FFCD"/>
<stop offset="1" stop-color="#96997B"/>
</linearGradient>
<linearGradient id="paint14_linear_641_180" x1="3.4486" y1="24.4793" x2="6.919" y2="25.6705" gradientUnits="userSpaceOnUse">
<stop stop-color="#F9FFCD"/>
<stop offset="1" stop-color="#96997B"/>
</linearGradient>
<linearGradient id="paint15_linear_641_180" x1="13.643" y1="64.0467" x2="15.8268" y2="61.3617" gradientUnits="userSpaceOnUse">
<stop stop-color="#F9FFCD"/>
<stop offset="1" stop-color="#96997B"/>
</linearGradient>
<linearGradient id="paint16_linear_641_180" x1="21.2893" y1="71.4891" x2="23.4582" y2="67.1239" gradientUnits="userSpaceOnUse">
<stop stop-color="#F9FFCD"/>
<stop offset="1" stop-color="#96997B"/>
</linearGradient>
<linearGradient id="paint17_linear_641_180" x1="32.0247" y1="73.1962" x2="32.3307" y2="69.7216" gradientUnits="userSpaceOnUse">
<stop stop-color="#F9FFCD"/>
<stop offset="1" stop-color="#96997B"/>
</linearGradient>
<linearGradient id="paint18_linear_641_180" x1="43.5633" y1="73.9291" x2="42.7909" y2="69.7479" gradientUnits="userSpaceOnUse">
<stop stop-color="#F9FFCD"/>
<stop offset="1" stop-color="#96997B"/>
</linearGradient>
<linearGradient id="paint19_linear_641_180" x1="52.8467" y1="70.1544" x2="51.4803" y2="67.1518" gradientUnits="userSpaceOnUse">
<stop stop-color="#F9FFCD"/>
<stop offset="1" stop-color="#96997B"/>
</linearGradient>
<linearGradient id="paint20_linear_641_180" x1="62.0452" y1="65.471" x2="59.3302" y2="61.9412" gradientUnits="userSpaceOnUse">
<stop stop-color="#F9FFCD"/>
<stop offset="1" stop-color="#96997B"/>
</linearGradient>
<linearGradient id="paint21_linear_641_180" x1="68.4281" y1="56.4221" x2="65.5939" y2="54.5964" gradientUnits="userSpaceOnUse">
<stop stop-color="#F9FFCD"/>
<stop offset="1" stop-color="#96997B"/>
</linearGradient>
<linearGradient id="paint22_linear_641_180" x1="73.9579" y1="46.6357" x2="69.6024" y2="45.3113" gradientUnits="userSpaceOnUse">
<stop stop-color="#F9FFCD"/>
<stop offset="1" stop-color="#96997B"/>
</linearGradient>
<linearGradient id="paint23_linear_641_180" x1="36.1163" y1="21.9023" x2="36.1163" y2="51.1818" gradientUnits="userSpaceOnUse">
<stop stop-color="#F9FFCD"/>
<stop offset="1" stop-color="#96997B"/>
</linearGradient>
<linearGradient id="paint24_linear_641_180" x1="26.2023" y1="18.5956" x2="25.2738" y2="18.967" gradientUnits="userSpaceOnUse">
<stop stop-color="#F9FFCD"/>
<stop offset="1" stop-color="#96997B"/>
</linearGradient>
<linearGradient id="paint25_linear_641_180" x1="17.9953" y1="26.0413" x2="17.4822" y2="26.8996" gradientUnits="userSpaceOnUse">
<stop stop-color="#F9FFCD"/>
<stop offset="1" stop-color="#96997B"/>
</linearGradient>
<linearGradient id="paint26_linear_641_180" x1="15.4555" y1="35.6927" x2="15.2323" y2="36.6674" gradientUnits="userSpaceOnUse">
<stop stop-color="#F9FFCD"/>
<stop offset="1" stop-color="#96997B"/>
</linearGradient>
<linearGradient id="paint27_linear_641_180" x1="15.4064" y1="44.3763" x2="15.7016" y2="45.3318" gradientUnits="userSpaceOnUse">
<stop stop-color="#F9FFCD"/>
<stop offset="1" stop-color="#96997B"/>
</linearGradient>
<linearGradient id="paint28_linear_641_180" x1="20.3792" y1="52.0932" x2="21.109" y2="52.7768" gradientUnits="userSpaceOnUse">
<stop stop-color="#F9FFCD"/>
<stop offset="1" stop-color="#96997B"/>
</linearGradient>
<linearGradient id="paint29_linear_641_180" x1="48.6449" y1="53.101" x2="47.8902" y2="53.7571" gradientUnits="userSpaceOnUse">
<stop stop-color="#F9FFCD"/>
<stop offset="1" stop-color="#96997B"/>
</linearGradient>
<linearGradient id="paint30_linear_641_180" x1="28.2233" y1="56.3174" x2="27.3182" y2="55.8922" gradientUnits="userSpaceOnUse">
<stop stop-color="#F9FFCD"/>
<stop offset="1" stop-color="#96997B"/>
</linearGradient>
<linearGradient id="paint31_linear_641_180" x1="38.738" y1="56.5453" x2="37.7433" y2="56.6481" gradientUnits="userSpaceOnUse">
<stop stop-color="#F9FFCD"/>
<stop offset="1" stop-color="#96997B"/>
</linearGradient>
<linearGradient id="paint32_linear_641_180" x1="54.6683" y1="47.0589" x2="54.0607" y2="47.8531" gradientUnits="userSpaceOnUse">
<stop stop-color="#F9FFCD"/>
<stop offset="1" stop-color="#96997B"/>
</linearGradient>
<linearGradient id="paint33_linear_641_180" x1="37.4766" y1="3.45703" x2="37.4766" y2="70.457" gradientUnits="userSpaceOnUse">
<stop stop-color="#F9FFCD"/>
<stop offset="1" stop-color="#96997B"/>
</linearGradient>
<linearGradient id="paint34_linear_641_180" x1="37.4766" y1="5.45703" x2="37.4766" y2="68.457" gradientUnits="userSpaceOnUse">
<stop stop-color="#F9FFCD"/>
<stop offset="1" stop-color="#96997B"/>
</linearGradient>
</defs>
</svg>
